<svg width="980" height="520" viewBox="0 0 980 520" fill="none" xmlns="http://www.w3.org/2000/svg">
  <defs>
    <linearGradient id="sky" x1="0" y1="0" x2="980" y2="520"><stop stop-color="#EAF5FF"/><stop offset="0.45" stop-color="#68B7FF"/><stop offset="1" stop-color="#073A79"/></linearGradient>
    <linearGradient id="glass" x1="0" y1="0" x2="0" y2="1"><stop stop-color="#DDF4FF" stop-opacity=".95"/><stop offset="1" stop-color="#0B4F95" stop-opacity=".82"/></linearGradient>
    <filter id="blur"><feGaussianBlur stdDeviation="18"/></filter>
  </defs>
  <rect width="980" height="520" rx="0" fill="url(#sky)"/>
  <circle cx="760" cy="95" r="180" fill="#FFFFFF" opacity=".13" filter="url(#blur)"/>
  <path d="M0 360C170 260 278 320 426 278C548 244 644 170 980 170V520H0V360Z" fill="#DDF3FF" opacity=".42"/>
  <g opacity=".96">
    <rect x="470" y="120" width="54" height="250" rx="4" fill="url(#glass)"/>
    <rect x="548" y="70" width="72" height="300" rx="5" fill="url(#glass)"/>
    <rect x="650" y="150" width="64" height="220" rx="4" fill="url(#glass)"/>
    <rect x="744" y="48" width="82" height="322" rx="5" fill="url(#glass)"/>
    <rect x="850" y="128" width="56" height="242" rx="4" fill="url(#glass)"/>
    <rect x="370" y="190" width="52" height="180" rx="3" fill="#2E83C5" opacity=".78"/>
    <rect x="290" y="226" width="44" height="144" rx="3" fill="#3A9ADB" opacity=".62"/>
  </g>
  <g stroke="#E6F8FF" stroke-opacity=".82" stroke-width="1.2">
    <path d="M518 150H886M518 190H886M518 230H886M518 270H886M518 310H886"/>
    <path d="M500 130V360M584 84V360M682 158V360M785 58V360M875 138V360"/>
  </g>
  <path d="M0 392C220 378 328 330 454 314C594 296 740 326 980 298" stroke="#FFFFFF" stroke-width="9" opacity=".55"/>
  <path d="M0 424C220 408 342 358 470 342C604 325 756 352 980 326" stroke="#0D315B" stroke-width="16" opacity=".28"/>
  <g stroke="#FFFFFF" stroke-width="1.5" opacity=".68">
    <path d="M420 110C510 52 590 138 656 90C744 26 808 112 902 62"/>
    <path d="M410 160C518 124 564 184 642 150C730 112 806 178 932 120"/>
  </g>
  <g fill="#FFFFFF">
    <circle cx="494" cy="88" r="6"/><circle cx="636" cy="102" r="5"/><circle cx="744" cy="72" r="6"/><circle cx="864" cy="90" r="7"/>
  </g>
  <rect x="720" y="118" width="138" height="96" rx="16" fill="white" opacity=".82"/>
  <text x="742" y="148" font-family="Inter, Arial" font-size="13" fill="#34425F" font-weight="700">Business Impact</text>
  <text x="742" y="184" font-family="Inter, Arial" font-size="34" fill="#0868E7" font-weight="800">+38%</text>
  <text x="742" y="204" font-family="Inter, Arial" font-size="11" fill="#64708A">Efficiency Gain</text>
  <rect x="720" y="246" width="138" height="128" rx="16" fill="white" opacity=".82"/>
  <text x="742" y="276" font-family="Inter, Arial" font-size="13" fill="#34425F" font-weight="700">Satisfaction</text>
  <circle cx="789" cy="322" r="31" stroke="#D9E8FF" stroke-width="8"/>
  <path d="M789 291A31 31 0 1 1 764 341" stroke="#0A70F5" stroke-width="8" stroke-linecap="round"/>
  <text x="771" y="330" font-family="Inter, Arial" font-size="18" fill="#0868E7" font-weight="800">98%</text>
</svg>
